<?xml version="1.0" encoding="utf-8"?>
<!-- Generator: Adobe Illustrator 19.0.0, SVG Export Plug-In . SVG Version: 6.00 Build 0)  -->
<svg version="1.1" id="Layer_1" xmlns="http://www.w3.org/2000/svg" xmlns:xlink="http://www.w3.org/1999/xlink" x="0px" y="0px"
	 viewBox="0 0 841.9 595.3" style="enable-background:new 0 0 841.9 595.3;" xml:space="preserve">
<style type="text/css">
	.st0{fill:#1E2023;}
</style>
<g>
	<g>
		<path class="st0" d="M53.4,153.1c-7.6,0-17.4,8-23.2,13.4C17.5,177.7,6,198.5,6,215.2c0,23.7,20.2,32.6,25.3,32.6
			c1.7,0,3.1-0.9,3.1-3.1c0-1.8-1.1-3.3-2.3-4.8c-4.7-7.1-6.2-13.9-6.2-23.1c0-19.1,8.8-36.7,16.2-44.7c1.4-1.5,4.4-4.6,5.3-4.6
			c0.9,0,1.1,0.7,1.1,3l-0.9,125.3c0,19.6-5.7,27.4-5.7,32c0,2,0.9,2.6,2.6,2.6c7.9,0,15.8-9.7,18.1-13.2c6.9-12,8.6-21.4,8.6-48.4
			V163.4c0-2.9-0.8-4.1-3.5-5.8C63.9,155.1,59.3,153.1,53.4,153.1L53.4,153.1z M280.3,153.4c-3.7,0-5.3,2-5.5,8l-0.8,25l-21.9-0.8
			c-1.3,0-1.9,0.4-2.5,1.6c-1.9,3.5-2.8,6.2-2.8,10.7c0,3.7,1.7,4.1,3.2,4.1l22.7,0.7l-0.1,47.7c0,10.1-6.4,23.3-17.7,34.2
			c0,0,1-3.3,0.9-6.8c0-9.8-6.3-18.7-14.7-25l-20.5-15.4c4.3-5,11.6-14.8,11.6-23.2c0-6.5-4.1-9.2-11.6-9.2
			c-10.7,0-23.1,9.8-23.1,24.3c0,5.3,2.4,10.1,5.9,13.7c-4.9,9.4-11.9,21.7-17.1,30.5c-3.9,6.7-10.6,17-14.5,17
			c-2.9,0-4.2-4.6-4.2-22c0-14.5,1-30.3,1.6-45.5c0-3.5-0.6-6.7-5.1-9.8c-4.2-2.7-9.3-6.4-14.6-6.4c-11.7,0-19.7,10.8-25.2,21.4
			c-5.7,10.9-8.7,20.2-13.1,33.6l0.5-46.1c0.1-3.3-0.7-4.6-3.3-5.7c-3.4-1.4-8.4-3.1-12.9-3.1c-3.7,0-4.2,1.6-4.2,5.5l-0.5,55.3
			l-0.1,21.3c0,19.2,2.4,22.4,13.8,22.4c6.3,0,8.3-0.7,8.5-6c0.2-3.5,1.8-11.9,4.1-20.3c6.6-24.9,14.4-44.6,27.8-59.6
			c1.4-1.5,2.5-0.9,2.3,1.1c0,0-2.1,33.7-2.1,47.5c0,24.5,3.8,37.3,16,37.3c12,0,23.7-15.4,30.1-25.8l20.6-34.4
			c13.3,11.4,22.7,20.2,22.7,30.9c0,6.7-4.2,13.2-10.6,13.2c-8,0-13.1-8.4-18.5-8.4c-4.5,0-10.2,8.7-10.2,13.6
			c0,4.6,10.1,11.2,28.3,11.2c26.8,0,41.2-18.4,49.9-38.8c1.7,24.2,11.3,38.4,26.3,38.4c9.9,0,21.3-12.5,26.5-27.7
			c0,0,0.5,4,4.5,12.1c5.4,10.6,13.7,15.4,23.9,15.4c12.7,0,23.6-7.7,30.3-20.7c1,9.8,9.3,20.6,22.5,20.6c8.3,0,15.9-6.4,20.9-16.9
			c0,0,6.5,17.3,25.1,17.3c10.5,0,22.9-9.7,25.9-16.8l0.3,10.3l-27.7,25.5c-8,7.8-16.6,19-16.6,31.4c0,15.8,14.9,24.9,28,24.9
			c13.6,0,22.7-8.6,27.6-15.9c6.2-9.4,8.9-27,8.9-44.3l-0.6-25.9c18.7-20.5,33.3-48.9,39.8-68.9l14.2-0.4c2.7-0.2,2.6,0.9,2.2,2.5
			c-2.5,10.5-4.7,22.4-4.7,34.3c0,19.6,4.5,28.1,11,35.1c5.6,5.8,11.3,7.8,17.2,7.8c11.6,0,18.8-9.5,21.1-15.6
			c5.4,10.6,13.4,15.5,23.7,15.5c12.7,0,23.6-7.7,30.3-20.7c1,9.8,9.3,20.6,22.5,20.6c9.9,0,15.7-5.7,20.2-16.5
			c0.1,3.5,0.2,7.2,0.3,10.6c0.1,1.8,1.6,2.9,2.8,3.4c4.2,1.6,7.9,2.4,11.2,2.4c8.7,0,10.5-1.8,10.5-7.4c0-9.3,0.3-24.1,2.9-35.9
			c2.8-11.8,7.1-25.1,12.9-34.4c0.5-1,1.8-0.7,1.9,0.5c0.8,19.9,2.2,53.5,7.4,62.2c2.6,4.2,6.6,7.2,12.5,7.2c2.8,0,6.2-1.2,7.1-1.9
			c0.9-0.7,1.3-1.5,1.3-2.9c0-25.4,7.9-50,15.9-66.5c0.2-0.5,0.8-0.5,0.8,0.1l-0.4,18.3c0,30.1,2.2,49.1,17.2,58.2
			c3,1.7,6.3,2.5,9.7,2.5c7.7,0,14.6-4.3,18.1-11.2c2.8-5.4,5.4-15.7,5.4-21.5c0-2.3,0-5.9-3.7-5.9c-2,0-3.3,1.5-3.7,3.8
			c-1.2,4.9-2.2,9.1-4,14c-1.8,4.6-4.4,7.3-7.5,7.3c-3.6,0-5.5-2.9-6.6-4.6c-4.7-7.1-5-23.4-5-37l1.1-35c0-2.9-1.2-6.4-5.7-8.9
			c-3-1.7-10.6-5-15.2-5c-4.3,0-6.4,2.4-8,6c-2.9,6.4-12.7,31.7-15.3,52.2c-0.1,0.5-0.8,0.7-0.8,0c-1.4-14.5-2.1-32-2-43.8
			c0-3.6-0.9-8.7-8.4-12c-3.7-1.5-6.7-2.5-10.4-2.5c-4.6,0-5.6,2.3-7.3,5.2c-5.2,9.6-8.8,22.2-14.2,38.1l0.1-36.3c0-1.7-1-3.9-4-4.5
			c-7.4-1.7-10.8-2.5-13.7-2.5c-2.1,0-3.3,1.7-3.3,3.5l-0.4,61.9c-1.4,7.6-7.2,25.7-15.4,25.7c-6.7,0-9.9-6.8-9.9-35.4l1.2-46.4
			c0-2.9-1.9-4.2-4.7-5.4c-4-1.6-7.2-2.2-11.3-2.2c-5.1,0-6.9,2.4-5.8,8.3c-5.6-7.6-11.3-11.8-21.2-11.8c-20,0-35,24-35,58.9
			c-0.2,9.8,2.2,19.5,2.2,19.5c-1.8,8.1-6.1,14.7-11.9,14.7c-7.4,0-12.1-10.5-12.1-28.6c0-18.2,6.9-38.7,6.9-44.2
			c0-6.5-4.2-10.5-11.7-10.5c-3.8,0-17.7,3.2-24.8,4.2c0,0,0.8-3.4,0.7-6.1c0-6.4-3-10.4-10.4-10.4c-9.1,0-15.7,6.5-15.7,17.5
			c0,5,2.9,9.5,6.6,12c-4.9,20.5-12.9,35.7-24.6,52.7l1-68.8c0-2.2-0.6-3.6-5-5.3c-2.3-1-6.1-2.2-10.9-2.2c-6.9,0-6.4,4.9-6.1,8.6
			c-3.2-5.6-10.1-12.2-20.7-12.2c-29.1,0-38,44.3-33.6,75.8c0,3.8-3.7,17.5-12.2,17.5c-6.7,0-9.9-6.8-9.9-35.4l1.2-46.4
			c0-2.9-1.9-4.2-4.7-5.4c-4-1.6-7.2-2.2-11.3-2.2c-5.1,0-6.9,2.4-5.8,8.3c-5.6-7.6-11.3-11.8-21.2-11.8c-20,0-35.2,22-35.2,56.8
			c0,13.3-11.5,33.6-19.5,33.6c-4.5,0-9.2-8.2-9.2-29.1c0-14.3,2-62.9,2-62.9l28.1-0.5c1.3,0,2.1-1.5,2.6-2.4
			c1.3-2.6,1.9-4.4,1.9-7.5c0-2.8-0.6-3.9-4.2-4.1l-28-1.7l1.2-26.1c0.1-1.6-0.9-2.7-2.7-3.5C291.1,155.5,284.5,153.4,280.3,153.4
			L280.3,153.4z M365.2,221.7c7.5,0,15.1,6.8,15.1,31c0,30.5-11.1,44.7-19.6,44.7c-8,0-14.1-11.3-14.1-33.5
			C346.6,241.4,352.5,221.7,365.2,221.7L365.2,221.7z M634.7,221.7c7.5,0,15.1,6.8,15.1,31c0,30.5-11.1,44.7-19.6,44.7
			c-8,0-14.1-11.3-14.1-33.5C616,241.4,621.9,221.7,634.7,221.7L634.7,221.7z M463.8,221.8c9.8,0,14.1,10.1,14.1,29.6
			c0,29.4-8.7,46.2-19.4,46.2c-6.8,0-14.6-11.1-14.2-33C444.3,250.5,448.9,221.8,463.8,221.8L463.8,221.8z M480.3,320.2v11.6
			c0,38.4-10.2,45-18.5,45c-3.1,0-10.8-2.4-10.8-11.9c0-13.3,13.9-28.4,18.2-33.1L480.3,320.2z M480.3,320.2"/>
	</g>
</g>
</svg>
